<svg width="112" height="48" viewBox="0 0 112 48" fill="none" xmlns="http://www.w3.org/2000/svg">
<path d="M13.3166 31.7295C10.1329 31.7295 7.82047 29.283 7.82047 25.7307C7.82047 22.1783 10.0993 19.7385 13.3166 19.7385C16.5338 19.7385 18.9803 22.2185 18.9803 25.7374C18.9803 29.2562 16.5338 31.7295 13.3166 31.7295ZM18.9467 16.5146V19.6648C18.2707 18.5613 17.3185 17.6532 16.1842 17.0302C15.0499 16.4072 13.7727 16.0909 12.4788 16.1125C7.6529 16.1125 4 20.1005 4 25.7307C4 31.3608 7.58588 35.3489 12.5123 35.3489C13.7954 35.3782 15.0639 35.0721 16.1924 34.4608C17.321 33.8495 18.2704 32.9543 18.9467 31.8635V34.9467H22.7337V16.5146H18.9467Z" fill="#00151C"/>
<path d="M32.8216 31.3944C33.4583 30.4561 33.9275 29.0485 34.2626 26.9037L35.3686 20.0738H41.5349V31.4011L32.8216 31.3944ZM45.3219 31.3944V16.5147H32.1513L30.5092 26.7361C30.0735 29.3501 29.5373 30.7577 28.6995 31.3944H25.4823V39.7391H29.2692V34.9468H44.8862V39.7391H48.6732V31.3944H45.3219Z" fill="#00151C"/>
<path d="M64.3661 16.5147L55.2506 30.0204L55.4852 24.2227V16.5147H51.6982V34.9468H56.1554L65.2709 21.4076L65.0363 27.2388V34.9468H68.8233V16.5147H64.3661Z" fill="#00151C"/>
<path d="M90.5596 34.9468L80.8074 25.2616L89.8223 16.5147H84.963L76.9869 24.4908V16.5147H73.2V34.9468H76.9869V26.4345L85.6667 34.9468H90.5596Z" fill="#00151C"/>
<path d="M108 16.5147H92.1821V20.0671H98.2144V34.9468H102.001V20.0671H108V16.5147Z" fill="#00151C"/>
<path d="M61.0725 14.6514L64.8594 8.36774C64.8888 8.3168 64.9043 8.25901 64.9043 8.20018C64.9043 8.14135 64.8888 8.08356 64.8594 8.03261L63.1268 5.03656C63.1203 5.02543 63.111 5.0162 63.0998 5.00979C63.0887 5.00338 63.076 5 63.0631 5C63.0502 5 63.0376 5.00338 63.0264 5.00979C63.0152 5.0162 63.0059 5.02543 62.9995 5.03656L57.2453 14.628C57.2421 14.6361 57.2407 14.6448 57.241 14.6535C57.2413 14.6622 57.2435 14.6707 57.2472 14.6786C57.251 14.6864 57.2563 14.6934 57.2629 14.6991C57.2695 14.7048 57.2772 14.7091 57.2855 14.7117H60.9149C60.9442 14.7162 60.9741 14.7129 61.0017 14.7024C61.0293 14.6918 61.0537 14.6742 61.0725 14.6514Z" fill="#7DBCCA"/>
</svg>
